<svg xmlns="http://www.w3.org/2000/svg" width="410" height="404" viewBox="0 0 410 404" fill="none">
  <path d="M399.641 59.5255L215.643 388.545C211.844 395.338 202.084 395.378 198.228 388.618L10.5817 59.5563C6.38087 52.1896 12.6802 43.2665 21.0281 44.7586L205.223 77.6824C206.398 77.8924 207.601 77.8904 208.776 77.6763L389.119 44.8058C397.439 43.2894 403.768 52.1434 399.641 59.5255Z" fill="url(#paint0_linear)"/>
  <path d="M292.965 1.5744L156.789 28.2552C155.563 28.4964 154.533 29.2671 153.988 30.3779L80.691 180.606C79.8475 182.338 81.3599 184.314 83.2433 183.95L130.7 174.733C132.619 174.364 134.344 176.215 133.856 178.098L118.956 235.27C118.457 237.196 120.348 239.014 122.227 238.496L145.777 232.073C147.657 231.555 149.548 233.374 149.048 235.3L128.241 315.683C127.411 318.889 131.951 320.713 133.668 317.754L135.451 314.728L281.633 63.4006C282.636 61.646 281.17 59.4889 279.207 59.8719L231.813 68.9558C229.865 69.3365 228.217 67.3561 228.886 65.4847L296.654 5.43888C298.677 3.6342 296.887 0.317769 294.297 0.828709C293.855 0.916654 293.408 1.0205 292.965 1.5744Z" fill="url(#paint1_linear)"/>
  <defs>
    <linearGradient id="paint0_linear" x1="6.00017" y1="32.9999" x2="235" y2="344" gradientUnits="userSpaceOnUse">
      <stop stop-color="#41D1FF"/>
      <stop offset="1" stop-color="#BD34FE"/>
    </linearGradient>
    <linearGradient id="paint1_linear" x1="194.651" y1="8.81818" x2="236.076" y2="292.989" gradientUnits="userSpaceOnUse">
      <stop stop-color="#FFEA83"/>
      <stop offset="0.0833333" stop-color="#FFDD35"/>
      <stop offset="1" stop-color="#FFA800"/>
    </linearGradient>
  </defs>
</svg>
